<mxfile host="drawio-plugin" modified="2023-03-02T23:30:54.861Z" agent="5.0 (X11; Linux x86_64) AppleWebKit/537.36 (KHTML, like Gecko) Chrome/104.0.5112.102 Safari/537.36" etag="2-zgu7XBQRaDKkKsg5EV" version="20.5.3" type="embed"><diagram id="23iRSUPoRavnBvh4doch" name="Page-1"><mxGraphModel dx="123" dy="85" grid="1" gridSize="10" guides="1" tooltips="1" connect="1" arrows="1" fold="1" page="1" pageScale="1" pageWidth="827" pageHeight="1169" math="0" shadow="0"><root><mxCell id="0"/><mxCell id="1" parent="0"/><mxCell id="2" style="edgeStyle=orthogonalEdgeStyle;rounded=0;orthogonalLoop=1;jettySize=auto;html=1;" edge="1" parent="1" source="3" target="24"><mxGeometry relative="1" as="geometry"><Array as="points"><mxPoint x="470" y="200"/><mxPoint x="470" y="200"/></Array></mxGeometry></mxCell><mxCell id="3" value="peerboard" style="rounded=1;whiteSpace=wrap;html=1;fillColor=#fff2cc;strokeColor=#d6b656;" vertex="1" parent="1"><mxGeometry x="240" y="310" width="530" height="60" as="geometry"/></mxCell><mxCell id="27" style="edgeStyle=orthogonalEdgeStyle;rounded=0;orthogonalLoop=1;jettySize=auto;html=1;entryX=0;entryY=0.5;entryDx=0;entryDy=0;dashed=1;exitX=0.5;exitY=1;exitDx=0;exitDy=0;" edge="1" parent="1" source="29" target="17"><mxGeometry relative="1" as="geometry"><Array as="points"><mxPoint x="234" y="750"/></Array></mxGeometry></mxCell><mxCell id="33" value="Provide request result" style="edgeLabel;html=1;align=center;verticalAlign=middle;resizable=0;points=[];" vertex="1" connectable="0" parent="27"><mxGeometry x="-0.1755" y="1" relative="1" as="geometry"><mxPoint as="offset"/></mxGeometry></mxCell><mxCell id="34" style="edgeStyle=orthogonalEdgeStyle;rounded=0;orthogonalLoop=1;jettySize=auto;html=1;startArrow=none;startFill=0;exitX=0;exitY=0.75;exitDx=0;exitDy=0;entryX=1.004;entryY=0.686;entryDx=0;entryDy=0;entryPerimeter=0;" edge="1" parent="1" source="4" target="29"><mxGeometry relative="1" as="geometry"><mxPoint x="290" y="670" as="targetPoint"/></mxGeometry></mxCell><mxCell id="4" value="blackboard" style="rounded=1;whiteSpace=wrap;html=1;fillColor=#e1d5e7;strokeColor=#9673a6;" vertex="1" parent="1"><mxGeometry x="360" y="640" width="120" height="40" as="geometry"/></mxCell><mxCell id="5" style="edgeStyle=orthogonalEdgeStyle;rounded=0;orthogonalLoop=1;jettySize=auto;html=1;entryX=0.214;entryY=1;entryDx=0;entryDy=0;entryPerimeter=0;" edge="1" parent="1" source="6" target="3"><mxGeometry relative="1" as="geometry"/></mxCell><mxCell id="6" value="blackboard &lt;br&gt;online" style="rounded=1;whiteSpace=wrap;html=1;fillColor=#fff2cc;strokeColor=#d6b656;gradientColor=none;dashed=1;" vertex="1" parent="1"><mxGeometry x="294" y="410" width="120" height="60" as="geometry"/></mxCell><mxCell id="7" style="edgeStyle=orthogonalEdgeStyle;rounded=0;orthogonalLoop=1;jettySize=auto;html=1;entryX=0.5;entryY=1;entryDx=0;entryDy=0;" edge="1" parent="1" source="11" target="6"><mxGeometry relative="1" as="geometry"/></mxCell><mxCell id="8" value="online policy" style="edgeLabel;html=1;align=center;verticalAlign=middle;resizable=0;points=[];" vertex="1" connectable="0" parent="7"><mxGeometry x="0.2118" y="-2" relative="1" as="geometry"><mxPoint x="23" y="2" as="offset"/></mxGeometry></mxCell><mxCell id="9" style="edgeStyle=orthogonalEdgeStyle;rounded=0;orthogonalLoop=1;jettySize=auto;html=1;" edge="1" parent="1" source="11"><mxGeometry relative="1" as="geometry"><mxPoint x="450" y="370" as="targetPoint"/><Array as="points"><mxPoint x="450" y="550"/><mxPoint x="450" y="550"/></Array></mxGeometry></mxCell><mxCell id="10" value="offline policy" style="edgeLabel;html=1;align=center;verticalAlign=middle;resizable=0;points=[];" vertex="1" connectable="0" parent="9"><mxGeometry x="-0.2545" y="-2" relative="1" as="geometry"><mxPoint x="-2" y="-38" as="offset"/></mxGeometry></mxCell><mxCell id="11" value="policy blackboard" style="rounded=1;whiteSpace=wrap;html=1;fillColor=#e1d5e7;strokeColor=#9673a6;" vertex="1" parent="1"><mxGeometry x="360" y="610" width="120" height="30" as="geometry"/></mxCell><mxCell id="12" style="edgeStyle=orthogonalEdgeStyle;rounded=0;orthogonalLoop=1;jettySize=auto;html=1;exitX=0.5;exitY=0;exitDx=0;exitDy=0;" edge="1" parent="1" source="17" target="4"><mxGeometry relative="1" as="geometry"><mxPoint x="420" y="790" as="sourcePoint"/></mxGeometry></mxCell><mxCell id="13" style="edgeStyle=orthogonalEdgeStyle;rounded=0;orthogonalLoop=1;jettySize=auto;html=1;" edge="1" parent="1" source="17"><mxGeometry relative="1" as="geometry"><mxPoint x="559" y="369" as="targetPoint"/><Array as="points"><mxPoint x="559" y="750"/></Array></mxGeometry></mxCell><mxCell id="14" value="register capabilities" style="edgeLabel;html=1;align=center;verticalAlign=middle;resizable=0;points=[];" vertex="1" connectable="0" parent="13"><mxGeometry x="0.0089" relative="1" as="geometry"><mxPoint x="-9" y="-17" as="offset"/></mxGeometry></mxCell><mxCell id="15" style="edgeStyle=orthogonalEdgeStyle;rounded=0;orthogonalLoop=1;jettySize=auto;html=1;" edge="1" parent="1" source="17" target="3"><mxGeometry relative="1" as="geometry"><Array as="points"><mxPoint x="580" y="750"/></Array></mxGeometry></mxCell><mxCell id="16" value="request action" style="edgeLabel;html=1;align=center;verticalAlign=middle;resizable=0;points=[];" vertex="1" connectable="0" parent="15"><mxGeometry x="-0.0688" relative="1" as="geometry"><mxPoint y="-6" as="offset"/></mxGeometry></mxCell><mxCell id="25" style="edgeStyle=orthogonalEdgeStyle;rounded=0;orthogonalLoop=1;jettySize=auto;html=1;" edge="1" parent="1" source="17"><mxGeometry relative="1" as="geometry"><mxPoint x="600" y="370" as="targetPoint"/><Array as="points"><mxPoint x="600" y="750"/><mxPoint x="600" y="370"/></Array></mxGeometry></mxCell><mxCell id="26" value="commit action" style="edgeLabel;html=1;align=center;verticalAlign=middle;resizable=0;points=[];" vertex="1" connectable="0" parent="25"><mxGeometry x="0.2215" y="2" relative="1" as="geometry"><mxPoint x="22" y="115" as="offset"/></mxGeometry></mxCell><mxCell id="17" value="Agent&lt;br&gt;" style="rounded=1;whiteSpace=wrap;html=1;fillColor=#e1d5e7;strokeColor=#9673a6;" vertex="1" parent="1"><mxGeometry x="360" y="720" width="120" height="60" as="geometry"/></mxCell><mxCell id="18" style="edgeStyle=orthogonalEdgeStyle;rounded=0;orthogonalLoop=1;jettySize=auto;html=1;dashed=1;exitX=0.338;exitY=0.013;exitDx=0;exitDy=0;exitPerimeter=0;startArrow=classic;startFill=1;" edge="1" parent="1" source="3"><mxGeometry relative="1" as="geometry"><Array as="points"><mxPoint x="419" y="190"/><mxPoint x="420" y="190"/><mxPoint x="420" y="140"/></Array><mxPoint x="420" y="300" as="sourcePoint"/><mxPoint x="420" y="140" as="targetPoint"/></mxGeometry></mxCell><mxCell id="21" style="edgeStyle=orthogonalEdgeStyle;rounded=0;orthogonalLoop=1;jettySize=auto;html=1;dashed=1;strokeColor=none;" edge="1" parent="1" source="23"><mxGeometry relative="1" as="geometry"><mxPoint x="410" y="230" as="targetPoint"/></mxGeometry></mxCell><mxCell id="22" style="edgeStyle=orthogonalEdgeStyle;rounded=0;orthogonalLoop=1;jettySize=auto;html=1;dashed=1;strokeColor=#000000;endArrow=none;endFill=0;" edge="1" parent="1" source="23"><mxGeometry relative="1" as="geometry"><mxPoint x="420" y="230" as="targetPoint"/></mxGeometry></mxCell><mxCell id="23" value="capabilities" style="rounded=1;whiteSpace=wrap;html=1;fillColor=#fff2cc;strokeColor=#d6b656;" vertex="1" parent="1"><mxGeometry x="250" y="220" width="120" height="20" as="geometry"/></mxCell><mxCell id="24" value="storage" style="rounded=1;whiteSpace=wrap;html=1;fillColor=#fff2cc;strokeColor=#d6b656;" vertex="1" parent="1"><mxGeometry x="385" y="80" width="120" height="60" as="geometry"/></mxCell><mxCell id="29" value="SAT Solver" style="rounded=1;whiteSpace=wrap;html=1;fillColor=#e1d5e7;strokeColor=#9673a6;" vertex="1" parent="1"><mxGeometry x="174" y="650" width="120" height="30" as="geometry"/></mxCell><mxCell id="31" style="edgeStyle=orthogonalEdgeStyle;rounded=0;orthogonalLoop=1;jettySize=auto;html=1;entryX=0;entryY=0.25;entryDx=0;entryDy=0;startArrow=none;startFill=0;" edge="1" parent="1" source="30" target="4"><mxGeometry relative="1" as="geometry"/></mxCell><mxCell id="30" value="Rule Functor" style="rounded=1;whiteSpace=wrap;html=1;fillColor=#e1d5e7;strokeColor=#9673a6;" vertex="1" parent="1"><mxGeometry x="174" y="610" width="120" height="30" as="geometry"/></mxCell></root></mxGraphModel></diagram></mxfile>